<?xml version="1.0" encoding="UTF-8"?><svg id="perfil_de_troquel" xmlns="http://www.w3.org/2000/svg" xmlns:xlink="http://www.w3.org/1999/xlink" viewBox="0 0 1920 1080"><defs><style>.cls-1{filter:url(#drop-shadow-7);}.cls-2{filter:url(#drop-shadow-2);}.cls-2,.cls-3,.cls-4,.cls-5,.cls-6,.cls-7,.cls-8,.cls-9{stroke:#fff;}.cls-2,.cls-3,.cls-5,.cls-6,.cls-8{stroke-linejoin:round;stroke-width:5px;}.cls-2,.cls-4{fill:#4e8991;}.cls-2,.cls-5{stroke-linecap:round;}.cls-3{fill:#172a3a;filter:url(#drop-shadow-3);}.cls-4{stroke-width:3px;}.cls-5{fill:#74c9d1;filter:url(#drop-shadow-1);}.cls-6{fill:#1b9f7e;filter:url(#drop-shadow-5);}.cls-10{filter:url(#drop-shadow-6);}.cls-7{filter:url(#drop-shadow-8);font-family:OpenSans-Bold, 'Open Sans';font-size:63px;font-weight:700;letter-spacing:0em;}.cls-7,.cls-9{fill:#666;}.cls-8{fill:#0f4346;filter:url(#drop-shadow-4);}</style><filter id="drop-shadow-1" filterUnits="userSpaceOnUse"><feOffset dx="-2.8" dy="8.5"/><feGaussianBlur result="blur" stdDeviation="5"/><feFlood flood-color="#000" flood-opacity=".8"/><feComposite in2="blur" operator="in"/><feComposite in="SourceGraphic"/></filter><filter id="drop-shadow-2" filterUnits="userSpaceOnUse"><feOffset dx="-2.8" dy="7"/><feGaussianBlur result="blur-2" stdDeviation="5"/><feFlood flood-color="#000" flood-opacity=".8"/><feComposite in2="blur-2" operator="in"/><feComposite in="SourceGraphic"/></filter><filter id="drop-shadow-3" filterUnits="userSpaceOnUse"><feOffset dx="-2.8" dy="8.5"/><feGaussianBlur result="blur-3" stdDeviation="5"/><feFlood flood-color="#000" flood-opacity=".8"/><feComposite in2="blur-3" operator="in"/><feComposite in="SourceGraphic"/></filter><filter id="drop-shadow-4" filterUnits="userSpaceOnUse"><feOffset dx="-2.8" dy="8.5"/><feGaussianBlur result="blur-4" stdDeviation="5"/><feFlood flood-color="#000" flood-opacity=".8"/><feComposite in2="blur-4" operator="in"/><feComposite in="SourceGraphic"/></filter><filter id="drop-shadow-5" filterUnits="userSpaceOnUse"><feOffset dx="-2.8" dy="8.5"/><feGaussianBlur result="blur-5" stdDeviation="5"/><feFlood flood-color="#000" flood-opacity=".8"/><feComposite in2="blur-5" operator="in"/><feComposite in="SourceGraphic"/></filter><filter id="drop-shadow-6" filterUnits="userSpaceOnUse"><feOffset dx="-5.7" dy="2.8"/><feGaussianBlur result="blur-6" stdDeviation="5"/><feFlood flood-color="#000" flood-opacity=".8"/><feComposite in2="blur-6" operator="in"/><feComposite in="SourceGraphic"/></filter><filter id="drop-shadow-7" filterUnits="userSpaceOnUse"><feOffset dx="0" dy="2.8"/><feGaussianBlur result="blur-7" stdDeviation="5"/><feFlood flood-color="#000" flood-opacity=".8"/><feComposite in2="blur-7" operator="in"/><feComposite in="SourceGraphic"/></filter><filter id="drop-shadow-8" filterUnits="userSpaceOnUse"><feOffset dx="0" dy="-5.7"/><feGaussianBlur result="blur-8" stdDeviation="5"/><feFlood flood-color="#000" flood-opacity=".4"/><feComposite in2="blur-8" operator="in"/><feComposite in="SourceGraphic"/></filter></defs><g id="sigas"><path id="s" class="cls-5" d="M651.7,846c0,34.3-14.4,61.3-43.1,81-28.7,19.7-68.7,29.6-119.9,29.6s-88.9-7.6-125.2-22.8v-74.8c29.8,11.4,55.1,19.5,75.7,24.1,20.7,4.7,39.6,7,56.7,7s36.3-3.4,47.3-10.1c11-6.7,16.5-16.8,16.5-30.1s-2.4-14.1-7.3-19.9c-4.8-5.8-11.9-11.4-21.3-16.7-9.4-5.4-28.5-13.9-57.3-25.7-27-10.9-47.3-21.4-60.8-31.4-13.5-10-24.3-21.7-32.3-35-8.1-13.3-12.1-28.9-12.1-46.7,0-33.6,13.3-60,39.8-79.2,26.5-19.2,63.1-28.8,109.9-28.8s44.9,2.3,65.8,7c20.9,4.7,42.7,11.3,65.5,19.7l-30.2,62.6c-23.6-8.3-43.1-14.1-58.5-17.4-15.4-3.3-30.6-4.9-45.5-4.9s-31.3,3.5-40.8,10.6c-9.5,7.1-14.2,16.4-14.2,27.8s1.9,13.3,5.7,18.6c3.8,5.3,9.9,10.4,18.3,15.3,8.4,4.9,28.2,13.8,59.4,26.6,41.3,17,69.6,34,84.9,51,15.3,17,23,37.9,23,62.7Z"/><path id="i" class="cls-2" d="M608,951.4v-379.5h93.7v379.5h-93.7Z"/><path id="g" class="cls-3" d="M856.9,738.2h175.3v196.8c-28.4,8-55.2,13.5-80.3,16.7-25.1,3.2-50.7,4.8-76.9,4.8-66.7,0-117.7-16.8-152.8-50.5-35.2-33.7-52.8-82-52.8-145s20.4-109,61.2-143.3c40.8-34.3,97.4-51.4,169.7-51.4s89.1,7.8,131.2,23.4l-31.1,64.4c-32.2-13.8-65.8-20.8-100.7-20.8s-73,11.7-97.3,35c-24.4,23.4-36.6,54.8-36.6,94.2s9.8,72.7,29.5,94.4c19.7,21.7,48.2,32.6,85.7,32.6s39.4-1.7,59.6-5.2v-79.2h-83.7v-67Z"/><path id="a" class="cls-8" d="M1284.2,951.4l-32-90.3h-161.1l-32,90.3h-101l156-381.1h114.6l156.6,381.1h-101Zm-54.4-157.8c-29.6-81.9-46.3-128.2-50-138.9-3.7-10.7-6.4-19.2-8-25.4-6.7,22.2-25.7,76.9-57.1,164.3h115.2Z"/><path id="s-2" class="cls-6" d="M1577.9,846c0,34.3-14.4,61.3-43.1,81-28.7,19.7-68.7,29.6-119.9,29.6s-88.9-7.6-125.2-22.8v-74.8c29.8,11.4,55.1,19.5,75.7,24.1,20.7,4.7,39.6,7,56.7,7s36.3-3.4,47.3-10.1c11-6.7,16.5-16.8,16.5-30.1s-2.4-14.1-7.3-19.9c-4.8-5.8-11.9-11.4-21.3-16.7-9.4-5.4-28.5-13.9-57.3-25.7-27-10.9-47.3-21.4-60.8-31.4-13.5-10-24.3-21.7-32.3-35-8.1-13.3-12.1-28.9-12.1-46.7,0-33.6,13.3-60,39.8-79.2,26.5-19.2,63.1-28.8,109.9-28.8s44.9,2.3,65.8,7c20.9,4.7,42.7,11.3,65.5,19.7l-30.2,62.6c-23.6-8.3-43.1-14.1-58.5-17.4-15.4-3.3-30.6-4.9-45.5-4.9s-31.3,3.5-40.8,10.6c-9.5,7.1-14.2,16.4-14.2,27.8s1.9,13.3,5.7,18.6c3.8,5.3,9.9,10.4,18.3,15.3,8.4,4.9,28.2,13.8,59.4,26.6,41.3,17,69.6,34,84.9,51,15.3,17,23,37.9,23,62.7Z"/></g><g class="cls-10"><path class="cls-9" d="M1250.2,521.2h-44.1c0-62.3,2.7-71.2-38.9-80-63.6-13.3-123.6-25.9-145.5-69.4-8-15.9-13.3-42.1,6.9-76.5,45.1-77.4,56.4-143.8,31-182.1-29.7-44.7-119.6-44.9-149.6,.7-25.5,38.8-14,104.9,31.5,181.1,20.6,34.3,15.4,60.6,7.4,76.6-21.7,43.7-81.1,56.2-144.2,69.3-43.4,9.1-40.7,17.5-40.7,80.3h-44v-25c0-50.5,4.3-79.7,70.1-93.5,74.3-15.6,147.8-29.5,112.5-88.6-104.6-175.2-29.9-274.4,82.4-274.4s186.8,95.6,82.5,274.4c-34.3,58.7,36.4,72.7,112.5,88.6,65.9,13.8,70.2,43,70.2,93.6v24.8Zm212.5-88.8c-57-12-110-22.4-84.3-66.5,78.2-134.1,20.8-205.8-61.9-205.8s-99.4,32.8-99.4,93.3,25.4,87.3,40,117.4h46.3c-7.5-30.1-64.8-102.8-33.9-149.9,18.2-27.8,75.3-27.8,93.4-.5,16.8,25.3,8,72.7-23.6,126.8-17.1,29.4-12.4,52.2-5.3,66.1,13.5,26.7,43.2,39.6,76.8,48.5,66.6,17.7,60.5,1.7,60.5,59.4h44.1v-18.6c0-37.9-3.2-59.9-52.6-70.2Zm-1007.9,88.8h44.1c0-57.7-6.1-41.7,60.5-59.4,33.6-8.9,63.3-21.7,76.8-48.5,7-14,11.8-36.7-5.3-66.1-31.6-54.1-40.4-101.5-23.6-126.8,18.1-27.4,75.2-27.3,93.4,.5,30.9,47.2-26.3,119.8-33.9,149.9h46.3c14.6-30.1,40-66.5,40-117.4,0-60.6-43.4-93.3-99.3-93.3-82.6,0-140.1,71.7-61.9,205.8,25.7,44.1-27.4,54.5-84.3,66.5-49.5,10.4-52.8,32.3-52.8,70.3,0,0,0,18.6,0,18.6Z"/></g><g class="cls-1"><path id="_" class="cls-4" d="M654.9,485.4c19.1,0,34.7,16.1,34.7,35.8s-15.5,35.8-34.7,35.8-34.7-16.1-34.7-35.8,15.5-35.8,34.7-35.8Zm0-7.2c-23,0-41.6,19.2-41.6,43s18.6,43,41.6,43,41.6-19.2,41.6-43-18.6-43-41.6-43Zm0,10.7c-17.2,0-31.2,14.4-31.2,32.2s14,32.2,31.2,32.2,31.2-14.4,31.2-32.2-14-32.2-31.2-32.2Zm3.5,49.9v3.8h-3.5v-3.6c-3.6,0-7.3-.9-10.4-2.6l1.6-5.9c3.3,1.3,7.7,2.7,11.2,1.9,4-.9,4.8-5.2,.4-7.2-3.2-1.6-13.1-2.9-13.1-11.6s3.6-9.2,10.3-10.2v-3.8h3.5v3.6c2.5,0,5.3,.5,8.5,1.5l-1.3,5.9c-2.7-1-5.6-1.8-8.5-1.7-5.2,.3-5.6,4.9-2,6.9,5.9,2.9,13.7,5,13.7,12.7,0,6.2-4.7,9.4-10.4,10.3Z"/></g><text class="cls-7" transform="translate(342.1 1040.3)"><tspan x="0" y="0" xml:space="preserve">Sistema  Informático de Gestión de Asociados</tspan></text></svg>